<svg id="Layer_1" enable-background="new 0 0 511.092 511.092" height="512" viewBox="0 0 511.092 511.092" width="512" xmlns="http://www.w3.org/2000/svg"><path d="m509.791 262.888-61.046-136.873c-1.179-2.644-3.098-4.89-5.525-6.467l-180-116.985c-4.971-3.23-11.378-3.23-16.349 0l-180 116.985c-2.453 1.594-4.387 3.872-5.562 6.551l-60.045 136.873c-.834 1.9-1.264 3.951-1.264 6.026v226.951c0 8.284 6.716 15 15 15h122.173c.026 0 .051.002.077.002.025 0 .049-.002.074-.002h236.445c.024 0 .049.002.073.002.026 0 .051-.002.077-.002h122.173c8.284 0 15-6.716 15-15v-226.951c0-2.105-.444-4.187-1.301-6.11zm-150.935 206.453-74.335-44.978 74.335-44.978zm-38.766 11.608h-129.089l64.544-39.054zm-64.544-74.118-64.544-39.054h129.088zm-28.975 17.532-74.335 44.978v-89.956zm254.521 56.586h-92.236v-128.172c0-8.154-6.845-15-15-15h-236.62c-8.155 0-15 6.846-15 15v128.172h-92.236v-208.805l56.98-129.885 168.066-109.229 168.107 109.256 57.939 129.906z"/><path d="m315.546 146.709h-120c-8.284 0-15 6.716-15 15v119.182c0 8.284 6.716 15 15 15h120c8.284 0 15-6.716 15-15v-119.182c0-8.284-6.716-15-15-15zm-15 119.182h-90v-89.182h90z"/></svg>